<?xml version="1.0" encoding="UTF-8" standalone="no"?>
<!-- Created with Inkscape (http://www.inkscape.org/) -->

<svg
   version="1.1"
   id="svg1"
   width="750.05334"
   height="245.88"
   viewBox="0 0 750.05334 245.88"
   sodipodi:docname="UniversityofPennsylvania_FullLogo_RGB.eps"
   xmlns:inkscape="http://www.inkscape.org/namespaces/inkscape"
   xmlns:sodipodi="http://sodipodi.sourceforge.net/DTD/sodipodi-0.dtd"
   xmlns="http://www.w3.org/2000/svg"
   xmlns:svg="http://www.w3.org/2000/svg">
  <defs
     id="defs1" />
  <sodipodi:namedview
     id="namedview1"
     pagecolor="#ffffff"
     bordercolor="#000000"
     borderopacity="0.25"
     inkscape:showpageshadow="2"
     inkscape:pageopacity="0.0"
     inkscape:pagecheckerboard="0"
     inkscape:deskcolor="#d1d1d1">
    <inkscape:page
       x="0"
       y="0"
       inkscape:label="1"
       id="page1"
       width="750.05334"
       height="245.88"
       margin="0"
       bleed="0" />
  </sodipodi:namedview>
  <g
     id="g1"
     inkscape:groupmode="layer"
     inkscape:label="1">
    <g
       id="group-R5">
      <path
         id="path2"
         d="m 2104.25,660.039 c 0,-173.609 41.57,-222.5 158.94,-222.5 v -41.59 h -503.72 v 41.59 c 97.82,0 158.94,31.793 158.94,217.621 v 877.83 c 0,171.17 -41.56,222.52 -158.94,222.52 v 41.57 h 511.05 c 386.36,0 542.85,-205.4 542.85,-398.57 0,-232.3 -176.07,-361.9 -493.94,-361.9 -61.13,0 -112.49,2.44 -215.18,14.67 V 660.039 Z m 0,454.821 c 63.58,-22 100.26,-24.45 173.61,-24.45 207.84,0 339.91,112.48 339.91,303.21 0,149.16 -83.16,349.67 -339.91,349.67 h -173.61 v -628.43 0"
         style="fill:#011f5b;fill-opacity:1;fill-rule:nonzero;stroke:none"
         transform="matrix(0.13333333,0,0,-0.13333333,0,245.88)" />
      <path
         id="path3"
         d="m 2845.15,924.129 c -4.89,-388.809 227.42,-486.59 344.79,-486.59 119.84,0 180.95,41.543 305.68,180.949 v -63.59 C 3390.47,420.398 3290.21,369.07 3138.6,369.07 c -271.44,0 -467.04,188.262 -467.04,449.918 0,261.642 190.72,467.042 435.24,467.042 200.52,0 386.35,-161.39 374.14,-361.901 h -635.79 z m 471.92,41.578 c 7.36,190.723 -122.23,268.973 -232.28,268.973 -144.24,0 -229.85,-107.6 -239.64,-268.973 h 471.92 v 0"
         style="fill:#011f5b;fill-opacity:1;fill-rule:nonzero;stroke:none"
         transform="matrix(0.13333333,0,0,-0.13333333,0,245.88)" />
      <path
         id="path4"
         d="m 4419.84,584.262 c 0,-112.492 24.52,-146.723 146.74,-146.723 v -41.59 h -462.16 v 41.59 c 117.38,0 149.17,26.883 149.17,107.582 v 452.375 c 0,139.374 -100.26,198.054 -193.19,198.054 -85.55,0 -161.37,-53.79 -246.93,-168.71 V 603.801 c 0,-132.031 17.08,-166.262 146.72,-166.262 v -41.59 h -457.28 v 41.59 c 114.93,0 144.28,9.781 144.28,166.262 v 486.609 c 0,105.14 -26.92,127.15 -144.28,127.15 v 41.57 l 268.97,26.9 h 41.59 v -173.62 c 102.69,117.38 202.96,173.62 312.99,173.62 144.28,0 293.38,-102.71 293.38,-310.55 v -391.218 0"
         style="fill:#011f5b;fill-opacity:1;fill-rule:nonzero;stroke:none"
         transform="matrix(0.13333333,0,0,-0.13333333,0,245.88)" />
      <path
         id="path5"
         d="m 5478.66,584.262 c 0,-112.492 24.45,-146.723 146.71,-146.723 v -41.59 h -462.14 v 41.59 c 117.36,0 149.11,26.883 149.11,107.582 v 452.375 c 0,139.374 -100.22,198.054 -193.12,198.054 -85.62,0 -161.4,-53.79 -247,-168.71 V 603.801 c 0,-132.031 17.15,-166.262 146.72,-166.262 v -41.59 h -457.28 v 41.59 c 114.93,0 144.31,9.781 144.31,166.262 v 486.609 c 0,105.14 -26.9,127.15 -144.31,127.15 v 41.57 l 269,26.9 h 41.56 v -173.62 c 102.69,117.38 202.98,173.62 312.99,173.62 144.28,0 293.45,-102.71 293.45,-310.55 v -391.218 0"
         style="fill:#011f5b;fill-opacity:1;fill-rule:nonzero;stroke:none"
         transform="matrix(0.13333333,0,0,-0.13333333,0,245.88)" />
      <path
         id="path6"
         d="m 1809.17,147.301 c 0,-38.821 10.53,-68.5002 51.87,-68.5002 38.01,0 57.98,25.5082 57.98,69.9102 v 77.098 c 0,5.82 -1.11,10.531 -1.67,14.992 -1.38,9.988 -10.82,13.879 -23.85,15.23 v 7.239 h 65.46 v -7.239 c -13.31,-1.351 -22.47,-5.242 -23.85,-15.23 -0.56,-4.461 -1.66,-9.172 -1.66,-14.992 v -78.207 c 0,-59.6332 -38.01,-81.8637 -73.79,-81.8637 -59.1,0 -77.4,29.9922 -77.4,80.1597 v 82.672 c 0,25.809 1.11,24.422 -23.86,27.461 v 7.239 h 74.62 v -7.239 c -24.96,-3.039 -23.85,-1.652 -23.85,-27.461 v -81.269 0"
         style="fill:#011f5b;fill-opacity:1;fill-rule:nonzero;stroke:none"
         transform="matrix(0.13333333,0,0,-0.13333333,0,245.88)" />
      <path
         id="path7"
         d="M 2116.03,69.0898 C 2081.99,109.309 2046.67,151.469 2011.78,192.57 V 97.9609 c 0,-4.4726 0.86,-8.1015 1.28,-11.5312 1.08,-7.7188 8.36,-10.7305 22.48,-11.7578 v -5.5821 h -52.44 v 5.5821 c 10.28,1.0273 17.34,4.039 18.4,11.7578 0.43,3.4297 1.29,7.0586 1.29,11.5312 V 198.809 c -6,7.671 -12.62,14.531 -24.83,14.531 v 5.57 h 38.95 c 31.9,-38.738 65.08,-78.129 96.96,-116.859 h 0.42 v 87.961 c 0,4.5 -0.84,8.129 -1.27,11.558 -1.07,7.731 -8.35,10.692 -22.47,11.77 v 5.57 h 52.43 v -5.57 c -10.06,-1.078 -17.33,-4.039 -18.39,-11.77 -0.44,-3.429 -1.29,-7.058 -1.29,-11.558 V 69.0898 h -7.27 v 0"
         style="fill:#011f5b;fill-opacity:1;fill-rule:nonzero;stroke:none"
         transform="matrix(0.13333333,0,0,-0.13333333,0,245.88)" />
      <path
         id="path8"
         d="m 2225.83,95.8516 c 0,-19.9024 -0.87,-18.8321 18.39,-21.1797 v -5.5821 h -57.57 v 5.5821 c 19.26,2.3476 18.41,1.2773 18.41,21.1797 V 192.16 c 0,19.899 0.85,18.82 -18.41,21.18 v 5.57 h 57.57 v -5.57 c -19.26,-2.36 -18.39,-1.281 -18.39,-21.18 v -96.3084 0"
         style="fill:#011f5b;fill-opacity:1;fill-rule:nonzero;stroke:none"
         transform="matrix(0.13333333,0,0,-0.13333333,0,245.88)" />
      <path
         id="path9"
         d="m 2335.42,213.34 c -11.78,0 -20.35,-3.43 -13.28,-23.961 8.35,-25.27 20.76,-62.059 31.9,-94.6095 13.68,32.7615 26.75,65.7105 40.03,98.4605 5.34,13.461 -0.21,20.11 -14.78,20.11 v 5.57 h 46.24 v -5.57 c -6.22,0 -13.28,-2.149 -17.78,-12.84 -17.97,-43.859 -36.16,-87.551 -54.15,-131.4102 h -10.91 c -13.05,37.0002 -27.62,78.3402 -40.66,114.7192 -7.93,22.882 -14.57,29.531 -24.82,29.531 v 5.57 h 58.21 v -5.57 0"
         style="fill:#011f5b;fill-opacity:1;fill-rule:nonzero;stroke:none"
         transform="matrix(0.13333333,0,0,-0.13333333,0,245.88)" />
      <path
         id="path10"
         d="m 2458.49,74.6719 c 19.26,2.3476 18.39,1.2773 18.39,21.1797 V 192.16 c 0,19.899 0.87,18.82 -18.39,21.18 v 5.57 h 95.68 v -34.48 h -5.56 c -2.16,15.859 -6.43,27.629 -21.85,27.629 h -29.11 v -61.2 h 17.99 c 13.49,0 19.27,5.321 19.69,18.621 h 5.56 v -45.589 h -5.56 C 2534.91,136.48 2529.98,144 2515.64,144 h -17.99 V 95.6016 c 0,-18.1719 8.35,-19.6524 27.61,-19.6524 31.04,0 29.54,8.75 39.39,31.6718 h 5.56 l -6.42,-38.5312 h -105.3 v 5.5821 0"
         style="fill:#011f5b;fill-opacity:1;fill-rule:nonzero;stroke:none"
         transform="matrix(0.13333333,0,0,-0.13333333,0,245.88)" />
      <path
         id="path11"
         d="m 2602.97,218.91 h 62.28 c 21.62,0 43.25,-11.351 43.25,-36.379 0,-22.051 -13.5,-37.25 -29.96,-43.691 l 20.97,-31.879 c 10.7,-15.6094 22.69,-30.6016 30.15,-35.1094 v -2.7618 h -22.03 c -12.63,0 -19.48,23.3321 -45.37,66.3712 h -20.14 V 95.8516 c 0,-19.9024 -0.84,-18.8321 18.42,-21.1797 v -5.5821 h -57.57 v 5.5821 c 19.26,2.3476 18.39,1.2773 18.39,21.1797 V 192.16 c 0,19.899 0.87,18.82 -18.39,21.18 v 5.57 z m 39.15,-76.648 h 17.79 c 18.63,0 27.19,14.129 27.19,38.32 0,23.34 -12.86,31.477 -28.48,31.477 h -16.5 v -69.797 0"
         style="fill:#011f5b;fill-opacity:1;fill-rule:nonzero;stroke:none"
         transform="matrix(0.13333333,0,0,-0.13333333,0,245.88)" />
      <path
         id="path12"
         d="m 2835.65,187.031 c -1.73,14.949 -9.87,26.969 -26.98,26.969 -12.43,0 -23.55,-6.441 -23.55,-22.258 0,-14.992 14.99,-24.004 36.41,-40.062 22.66,-16.891 29.94,-27.789 29.94,-45.59 0,-25.4416 -26.11,-39.5587 -51.8,-39.5587 -13.68,0 -25.46,2.5585 -36.58,6.8203 -0.87,0.4492 -1.52,1.3203 -1.52,3.0078 v 30.8126 h 5.58 C 2769.5,83.4219 2785.12,74 2801.61,74 c 15.21,0 27.59,11.5586 27.59,27.18 0,13.922 -7.48,25.269 -39.6,46.461 -11.54,7.718 -25.88,16.058 -25.88,39.39 0,19.25 21.4,34.438 46.01,34.438 9.2,0 21.42,-1.071 29.96,-4.039 1.29,-0.461 1.48,-1.282 1.48,-2.348 v -28.051 h -5.52 v 0"
         style="fill:#011f5b;fill-opacity:1;fill-rule:nonzero;stroke:none"
         transform="matrix(0.13333333,0,0,-0.13333333,0,245.88)" />
      <path
         id="path13"
         d="m 2929.19,95.8516 c 0,-19.9024 -0.89,-18.8321 18.38,-21.1797 V 69.0898 H 2890 v 5.5821 c 19.28,2.3476 18.41,1.2773 18.41,21.1797 V 192.16 c 0,19.899 0.87,18.82 -18.41,21.18 v 5.57 h 57.57 v -5.57 c -19.27,-2.36 -18.38,-1.281 -18.38,-21.18 v -96.3084 0"
         style="fill:#011f5b;fill-opacity:1;fill-rule:nonzero;stroke:none"
         transform="matrix(0.13333333,0,0,-0.13333333,0,245.88)" />
      <path
         id="path14"
         d="m 3053.33,95.8516 c 0,-19.9024 -0.87,-18.8321 18.42,-21.1797 v -5.5821 h -57.62 v 5.5821 c 19.28,2.3476 18.41,1.2773 18.41,21.1797 V 212.059 h -19.24 c -18.62,0 -22.92,-11.77 -29.98,-25.899 h -5.37 l 5.79,32.75 h 118.39 l 5.79,-32.75 h -5.37 c -7.06,14.129 -11.35,25.899 -29.98,25.899 h -19.24 v -116.2074 0"
         style="fill:#011f5b;fill-opacity:1;fill-rule:nonzero;stroke:none"
         transform="matrix(0.13333333,0,0,-0.13333333,0,245.88)" />
      <path
         id="path15"
         d="m 3170.19,74.6719 c 19.24,2.3476 18.41,1.2773 18.41,21.1797 v 32.9574 l -33,65.281 c -7.05,13.922 -13.04,19.25 -22.88,19.25 v 5.57 h 54.57 v -5.57 c -16.24,0 -14.75,-8.141 -9.43,-19.25 l 25.95,-53.719 29.51,53.719 c 7.28,13.058 0.43,19.25 -12.22,19.25 v 5.57 h 44.11 v -5.57 c -5.98,0 -11.78,-2.77 -17.55,-13.051 l -35.72,-64.828 c -2.15,-4.301 -2.59,-10.289 -2.59,-15.66 V 95.8516 c 0,-19.9024 -0.84,-18.8321 18.41,-21.1797 v -5.5821 h -57.57 v 5.5821 0"
         style="fill:#011f5b;fill-opacity:1;fill-rule:nonzero;stroke:none"
         transform="matrix(0.13333333,0,0,-0.13333333,0,245.88)" />
      <path
         id="path16"
         d="m 3362.66,120.379 c 0,36.34 31.35,90.73 77.68,90.73 36.92,0 44.93,-24.988 44.93,-49.929 0,-30.52 -24.4,-95.4417 -77.38,-95.4417 -35.53,0 -45.23,28.582 -45.23,54.6407 z m 97.1,54.101 c 0,28.872 -17.47,29.981 -21.89,29.981 -29.98,0 -49.69,-53.813 -49.69,-89.902 0,-14.418 2.54,-40.4692 23.05,-40.4692 31.63,0 48.53,52.1482 48.53,100.3902 v 0"
         style="fill:#011f5b;fill-opacity:1;fill-rule:nonzero;stroke:none"
         transform="matrix(0.13333333,0,0,-0.13333333,0,245.88)" />
      <path
         id="path17"
         d="m 3624.82,201.941 -6.66,-5.82 h -36.32 C 3568.24,130.129 3546.02,42.1719 3530.24,0 h -12.52 l 39.69,196.121 h -26.34 l 2.47,11.641 h 26.12 c 14.7,59.09 63.51,65.207 75.16,65.207 6.34,0 19.68,-1.117 23.85,-4.989 l -3.34,-18.3 -6.93,-3.34 c -3.87,7.469 -12.76,16.101 -24.41,16.101 -16.64,0 -29.11,-11.402 -35.81,-41.339 l -3,-13.34 h 40.76 l -1.12,-5.821 v 0"
         style="fill:#011f5b;fill-opacity:1;fill-rule:nonzero;stroke:none"
         transform="matrix(0.13333333,0,0,-0.13333333,0,245.88)" />
      <path
         id="path18"
         d="m 3794.05,103.738 c 0,-25.7692 -1.11,-24.406 23.83,-27.4567 v -7.1915 h -74.63 v 7.1915 c 24.99,3.0507 23.87,1.6875 23.87,27.4567 V 228.57 c 0,25.809 1.12,24.422 -23.87,27.461 v 7.239 h 72.69 c 46.05,0 68.8,-18.301 68.8,-51.622 0,-39.937 -36.05,-61.566 -78.51,-59.058 v 5.531 c 34.7,-0.531 50.75,20.238 50.75,50.758 0,31.09 -14.95,45.5 -46.03,45.5 h -16.9 v -150.641 0"
         style="fill:#011f5b;fill-opacity:1;fill-rule:nonzero;stroke:none"
         transform="matrix(0.13333333,0,0,-0.13333333,0,245.88)" />
      <path
         id="path19"
         d="m 3922.97,74.6719 c 19.31,2.3476 18.44,1.2773 18.44,21.1797 V 192.16 c 0,19.899 0.87,18.82 -18.44,21.18 v 5.57 h 95.69 v -34.48 h -5.57 c -2.14,15.859 -6.41,27.629 -21.81,27.629 h -29.11 v -61.2 h 17.97 c 13.49,0 19.28,5.321 19.68,18.621 h 5.59 v -45.589 h -5.59 c -0.4,12.589 -5.37,20.109 -19.68,20.109 h -17.97 V 95.6016 c 0,-18.1719 8.35,-19.6524 27.6,-19.6524 31.03,0 29.55,8.75 39.38,31.6718 h 5.59 l -6.46,-38.5312 h -105.31 v 5.5821 0"
         style="fill:#011f5b;fill-opacity:1;fill-rule:nonzero;stroke:none"
         transform="matrix(0.13333333,0,0,-0.13333333,0,245.88)" />
      <path
         id="path20"
         d="M 4204.67,69.0898 C 4170.63,109.309 4135.31,151.469 4100.43,192.57 V 97.9609 c 0,-4.4726 0.87,-8.1015 1.29,-11.5312 1.05,-7.7188 8.33,-10.7305 22.45,-11.7578 v -5.5821 h -52.39 v 5.5821 c 10.23,1.0273 17.29,4.039 18.38,11.7578 0.44,3.4297 1.26,7.0586 1.26,11.5312 V 198.809 c -5.98,7.671 -12.58,14.531 -24.82,14.531 v 5.57 h 38.95 c 31.92,-38.738 65.08,-78.129 96.96,-116.859 h 0.47 v 87.961 c 0,4.5 -0.87,8.129 -1.29,11.558 -1.08,7.731 -8.34,10.692 -22.5,11.77 v 5.57 h 52.43 v -5.57 c -10.02,-1.078 -17.33,-4.039 -18.37,-11.77 -0.47,-3.429 -1.34,-7.058 -1.34,-11.558 V 69.0898 h -7.24 v 0"
         style="fill:#011f5b;fill-opacity:1;fill-rule:nonzero;stroke:none"
         transform="matrix(0.13333333,0,0,-0.13333333,0,245.88)" />
      <path
         id="path21"
         d="M 4396.44,69.0898 C 4362.42,109.309 4327.11,151.469 4292.2,192.57 V 97.9609 c 0,-4.4726 0.87,-8.1015 1.29,-11.5312 1.08,-7.7188 8.34,-10.7305 22.46,-11.7578 v -5.5821 h -52.4 v 5.5821 c 10.24,1.0273 17.3,4.039 18.37,11.7578 0.47,3.4297 1.29,7.0586 1.29,11.5312 V 198.809 c -6,7.671 -12.59,14.531 -24.82,14.531 v 5.57 h 38.95 c 31.91,-38.738 65.08,-78.129 96.95,-116.859 h 0.46 v 87.961 c 0,4.5 -0.87,8.129 -1.29,11.558 -1.06,7.731 -8.33,10.692 -22.5,11.77 v 5.57 h 52.44 v -5.57 c -10.02,-1.078 -17.34,-4.039 -18.38,-11.77 -0.44,-3.429 -1.31,-7.058 -1.31,-11.558 V 69.0898 h -7.27 v 0"
         style="fill:#011f5b;fill-opacity:1;fill-rule:nonzero;stroke:none"
         transform="matrix(0.13333333,0,0,-0.13333333,0,245.88)" />
      <path
         id="path22"
         d="m 4535.78,187.031 c -1.7,14.949 -9.83,26.969 -26.98,26.969 -12.37,0 -23.54,-6.441 -23.54,-22.258 0,-14.992 14.99,-24.004 36.39,-40.062 22.72,-16.891 29.98,-27.789 29.98,-45.59 0,-25.4416 -26.08,-39.5587 -51.78,-39.5587 -13.72,0 -25.47,2.5585 -36.64,6.8203 -0.83,0.4492 -1.48,1.3203 -1.48,3.0078 v 30.8126 h 5.58 C 4469.66,83.4219 4485.26,74 4501.76,74 c 15.17,0 27.61,11.5586 27.61,27.18 0,13.922 -7.47,25.269 -39.6,46.461 -11.57,7.718 -25.9,16.058 -25.9,39.39 0,19.25 21.39,34.438 46,34.438 9.22,0 21.45,-1.071 29.98,-4.039 1.29,-0.461 1.51,-1.282 1.51,-2.348 v -28.051 h -5.58 v 0"
         style="fill:#011f5b;fill-opacity:1;fill-rule:nonzero;stroke:none"
         transform="matrix(0.13333333,0,0,-0.13333333,0,245.88)" />
      <path
         id="path23"
         d="m 4622.04,74.6719 c 19.29,2.3476 18.42,1.2773 18.42,21.1797 v 32.9574 l -32.96,65.281 c -7.07,13.922 -13.05,19.25 -22.92,19.25 v 5.57 h 54.61 v -5.57 c -16.28,0 -14.8,-8.141 -9.43,-19.25 l 25.9,-53.719 29.52,53.719 c 7.27,13.058 0.46,19.25 -12.18,19.25 v 5.57 h 44.11 v -5.57 c -6.03,0 -11.83,-2.77 -17.55,-13.051 l -35.76,-64.828 c -2.16,-4.301 -2.58,-10.289 -2.58,-15.66 V 95.8516 c 0,-19.9024 -0.87,-18.8321 18.4,-21.1797 v -5.5821 h -57.58 v 5.5821 0"
         style="fill:#011f5b;fill-opacity:1;fill-rule:nonzero;stroke:none"
         transform="matrix(0.13333333,0,0,-0.13333333,0,245.88)" />
      <path
         id="path24"
         d="m 4752.16,74.6719 c 19.29,2.3476 18.42,1.2773 18.42,21.1797 V 192.16 c 0,19.899 0.87,18.82 -18.42,21.18 v 5.57 h 57.62 v -5.57 c -19.28,-2.36 -18.42,-1.281 -18.42,-21.18 V 92.4219 c 0,-14.9922 8.33,-16.4727 27.38,-16.4727 31.05,0 29.78,8.75 39.61,31.6718 h 5.37 l -6.45,-38.5312 h -105.11 v 5.5821 0"
         style="fill:#011f5b;fill-opacity:1;fill-rule:nonzero;stroke:none"
         transform="matrix(0.13333333,0,0,-0.13333333,0,245.88)" />
      <path
         id="path25"
         d="m 4938.42,213.34 c -11.78,0 -20.36,-3.43 -13.3,-23.961 8.37,-25.27 20.76,-62.059 31.92,-94.6095 13.66,32.7615 26.75,65.7105 40.01,98.4605 5.37,13.461 -0.19,20.11 -14.78,20.11 v 5.57 h 46.27 v -5.57 c -6.21,0 -13.31,-2.149 -17.77,-12.84 -18.02,-43.859 -36.18,-87.551 -54.19,-131.4102 h -10.89 c -13.06,37.0002 -27.63,78.3402 -40.68,114.7192 -7.93,22.882 -14.55,29.531 -24.82,29.531 v 5.57 h 58.23 v -5.57 0"
         style="fill:#011f5b;fill-opacity:1;fill-rule:nonzero;stroke:none"
         transform="matrix(0.13333333,0,0,-0.13333333,0,245.88)" />
      <path
         id="path26"
         d="m 5064.03,118.73 -9.83,-28.6597 c -2.79,-8.3398 1.29,-15.3984 10.7,-15.3984 v -5.5821 h -38.95 v 5.5821 c 5.8,0 11.99,3.6289 15.42,10.6875 9.22,18.8316 34.23,88.8316 51.99,136.1096 h 12.01 c 14.54,-43.02 36.39,-108.93 43.66,-127.9807 4.69,-12.0195 8.14,-18.8164 17.34,-18.8164 v -5.5821 h -49.89 v 5.5821 c 13.5,0 14.79,7.0586 11.36,16.4687 l -9.22,27.5894 h -54.59 z m 51.82,8.129 -22.71,69.582 h -0.4 l -25.47,-69.582 h 48.58 v 0"
         style="fill:#011f5b;fill-opacity:1;fill-rule:nonzero;stroke:none"
         transform="matrix(0.13333333,0,0,-0.13333333,0,245.88)" />
      <path
         id="path27"
         d="M 5331.18,69.0898 C 5297.16,109.309 5261.81,151.469 5226.94,192.57 V 97.9609 c 0,-4.4726 0.82,-8.1015 1.29,-11.5312 1.08,-7.7188 8.33,-10.7305 22.45,-11.7578 v -5.5821 h -52.43 v 5.5821 c 10.28,1.0273 17.34,4.039 18.42,11.7578 0.42,3.4297 1.29,7.0586 1.29,11.5312 V 198.809 c -6.01,7.671 -12.65,14.531 -24.83,14.531 v 5.57 h 38.95 c 31.87,-38.738 65.08,-78.129 96.94,-116.859 h 0.42 v 87.961 c 0,4.5 -0.82,8.129 -1.29,11.558 -1.05,7.731 -8.33,10.692 -22.45,11.77 v 5.57 h 52.44 v -5.57 c -10.06,-1.078 -17.34,-4.039 -18.41,-11.77 -0.4,-3.429 -1.27,-7.058 -1.27,-11.558 V 69.0898 h -7.28 v 0"
         style="fill:#011f5b;fill-opacity:1;fill-rule:nonzero;stroke:none"
         transform="matrix(0.13333333,0,0,-0.13333333,0,245.88)" />
      <path
         id="path28"
         d="m 5432.39,95.8516 c 0,-19.9024 -0.82,-18.8321 18.42,-21.1797 v -5.5821 h -57.55 v 5.5821 c 19.24,2.3476 18.42,1.2773 18.42,21.1797 V 192.16 c 0,19.899 0.82,18.82 -18.42,21.18 v 5.57 h 57.55 v -5.57 c -19.24,-2.36 -18.42,-1.281 -18.42,-21.18 v -96.3084 0"
         style="fill:#011f5b;fill-opacity:1;fill-rule:nonzero;stroke:none"
         transform="matrix(0.13333333,0,0,-0.13333333,0,245.88)" />
      <path
         id="path29"
         d="m 5521.89,118.73 -9.87,-28.6597 c -2.76,-8.3398 1.27,-15.3984 10.72,-15.3984 v -5.5821 h -38.96 v 5.5821 c 5.77,0 11.96,3.6289 15.39,10.6875 9.22,18.8316 34.28,88.8316 52.03,136.1096 h 11.99 c 14.57,-43.02 36.37,-108.93 43.69,-127.9807 4.71,-12.0195 8.09,-18.8164 17.29,-18.8164 v -5.5821 h -49.83 v 5.5821 c 13.46,0 14.73,7.0586 11.3,16.4687 l -9.15,27.5894 h -54.6 z m 51.79,8.129 -22.66,69.582 h -0.47 l -25.43,-69.582 h 48.56 v 0"
         style="fill:#011f5b;fill-opacity:1;fill-rule:nonzero;stroke:none"
         transform="matrix(0.13333333,0,0,-0.13333333,0,245.88)" />
      <path
         id="path30"
         d="M 1589.43,1844.1 H 0 c 0,0 0.0117188,-788.14 0.00390625,-792.3 C -1.05078,706.891 190.082,457.09 350.605,308.25 527.148,144.582 721.781,50.1992 786.816,36.0313 l 7.895,-1.6993 7.965,1.7071 c 64.972,14.1601 259.594,108.5429 436.134,272.2109 160.54,148.84 351.66,398.641 350.61,743.53 -0.02,9.87 0.01,792.32 0.01,792.32 v 0"
         style="fill:#ffffff;fill-opacity:1;fill-rule:nonzero;stroke:none"
         transform="matrix(0.13333333,0,0,-0.13333333,0,245.88)" />
      <path
         id="path31"
         d="m 40.1914,1802.25 c 0,0 2.1055,-460.45 -0.0937,-458.23 L 1549.4,1344.01 c 0,215.72 0,458.24 0,458.24 H 40.1914 Z M 445.203,1512.37 h 0.008 c 2.324,-1.81 4.73,-3.69 6.43,-6.2 1.8,-2.69 2.722,-5.82 2.644,-9.21 0.078,-3.25 -0.844,-6.39 -2.648,-9.07 -1.696,-2.51 -4.098,-4.39 -6.426,-6.21 -3.609,-2.81 -7.012,-5.47 -7.012,-10.09 v -28.23 l -166.652,0.02 -166.645,-0.02 v 28.23 c 0,4.62 -3.41,7.28 -7.0114,10.09 -2.3242,1.82 -4.7304,3.7 -6.4258,6.21 -1.8046,2.68 -2.7226,5.82 -2.6523,9.21 -0.0703,3.25 0.8477,6.38 2.6523,9.07 1.6954,2.51 4.1016,4.39 6.4258,6.2 3.6094,2.82 7.0114,5.47 7.0114,10.1 v 92.13 c 0,4.62 -3.41,7.29 -7.0114,10.1 -2.3242,1.82 -4.7304,3.7 -6.4258,6.21 -1.8046,2.68 -2.7226,5.81 -2.6523,9.21 -0.0703,3.25 0.8477,6.38 2.6523,9.06 1.6993,2.53 4.211,4.48 6.4258,6.22 3.6094,2.81 7.0114,5.47 7.0114,10.09 v 29.07 h 4.239 c 19.476,0.01 36.574,0.44 48.476,5.54 4.863,2.07 9.348,4.89 14.117,7.89 10.207,6.42 21.782,13.69 39.094,13.69 13.891,0 26.793,-5.19 38.227,-9.8 8.062,-3.24 15.687,-6.31 21.375,-6.31 h 2.242 c 5.687,0 13.308,3.07 21.422,6.33 11.386,4.59 24.289,9.78 38.176,9.78 17.316,0 28.886,-7.27 39.128,-13.71 4.739,-2.98 9.223,-5.8 14.082,-7.87 11.907,-5.1 28.997,-5.53 48.485,-5.54 h 4.234 v -29.07 c 0,-4.62 3.403,-7.28 7.012,-10.1 2.211,-1.73 4.727,-3.68 6.426,-6.2 1.804,-2.69 2.726,-5.82 2.648,-9.21 0.078,-3.26 -0.844,-6.39 -2.648,-9.07 -1.696,-2.51 -4.098,-4.39 -6.426,-6.21 -3.609,-2.81 -7.012,-5.48 -7.012,-10.1 v -92.13 c 0,-4.63 3.403,-7.28 7.004,-10.1 z m 637.767,-48.15 c -25.77,-41.22 -75.5,-51.3 -77.56,-51.7 -9.812,-1.73 -19.879,-2.61 -29.93,-2.61 h -0.015 c -51.945,0 -99.957,22.6 -148.652,47.78 -5.485,2.84 -11.575,6.17 -18.129,9.76 -31.086,17.01 -74.469,40.76 -111.196,40.76 -10.675,0 -20.793,-2.01 -29.883,-6.78 l -1.507,-0.8 -0.086,-1.7 c -0.25,-4.79 -1.168,-9.34 -2.727,-13.53 -5.844,-15.66 -24.988,-32.32 -34.316,-38.95 -21.367,-15.37 -47.625,-31.09 -80.371,-31.09 -4.899,0 -9.438,0.71 -13.493,2.09 -5.871,2 -10.925,5.56 -14.609,10.3 -1.789,2.3 -3.293,4.92 -4.484,7.78 -0.949,2.27 -1.532,4.51 -1.887,7.27 l -0.258,1.93 -1.855,0.56 c -12.68,3.8 -20.254,12.1 -20.254,22.21 0,7.59 5.613,14.24 11.055,20.67 8.46,10.02 15.773,18.67 3.847,29.98 -1.125,1.05 -2.422,2.01 -3.687,2.96 -1.735,1.28 -3.371,2.49 -4.852,4.09 -10.461,11.21 -4.281,34.53 -0.594,48.45 l 0.407,1.51 c 4.015,15.25 10.168,31.02 18.808,48.22 11.711,23.28 25.86,49.52 45.696,66.11 0.394,0.33 0.902,0.47 1.417,0.4 0.508,-0.08 0.965,-0.37 1.243,-0.8 0.406,-0.61 2.562,-3.93 5.668,-9.12 l 3.343,-5.57 2.063,6.17 c 5.508,16.47 14.609,27.13 27.043,31.68 13.312,4.9 25.723,-1.96 31.933,-6.48 l 2.61,-1.91 1.695,2.76 c 3.977,6.47 11.293,14.3 23.59,14.86 13.477,0.6 24.48,-8.6 29.812,-14.16 l 1.93,-2.02 2.149,1.8 c 6.027,5.04 21.754,16.52 37.554,14.39 14.946,-2.01 20.649,-15.04 22.407,-20.55 l 1.058,-3.32 3.117,1.54 c 7.035,3.48 20.746,8.09 33.625,-0.07 8.278,-5.24 9.258,-14.2 8.629,-20.79 l -0.363,-3.88 3.84,0.65 c 9.683,1.64 27.508,2.75 38.086,-8.05 8.328,-8.5 8.867,-19.51 7.863,-27.25 l -0.492,-3.81 3.812,0.46 c 8.496,0.99 19.91,0.19 26.063,-9.35 4.168,-6.47 2.539,-15.61 1.203,-20.48 l -0.82,-2.97 2.992,-0.73 c 4.945,-1.2 13.625,-4.28 16.207,-11.38 1.918,-5.26 1.297,-14.08 -1.695,-24.16 l -0.766,-2.59 2.504,-1.03 c 4.289,-1.76 12.129,-5.96 16.367,-14.33 4.145,-8.2 3.961,-18.39 -0.562,-30.28 l -0.731,-1.93 1.543,-1.37 c 11.074,-9.83 22.227,-18.85 33.164,-26.8 22.195,-16.14 56.801,-24.7 80.311,-5.38 8.88,7.31 12.83,20.64 9.83,33.18 -2.67,11.1 -10.01,18.75 -20.11,20.98 -17.75,3.91 -31.84,-12.96 -43.277,-29.98 -0.367,-0.56 -1.012,-0.86 -1.672,-0.8 -0.664,0.07 -1.234,0.49 -1.488,1.11 -10.524,25.15 -11.035,46.03 -1.535,62.05 8.074,13.59 23.605,23.12 42.632,26.15 l 2.55,0.41 -0.03,2.58 c -0.34,29.79 6.8,51.52 21.21,64.56 8.75,7.93 24.85,16.61 51.83,12.98 0.55,-0.08 1.05,-0.41 1.33,-0.9 0.27,-0.48 0.31,-1.07 0.1,-1.58 -19.82,-47.75 -14.92,-65.63 -4.15,-104.84 0.94,-3.45 1.93,-7.06 2.94,-10.86 v 0 c 9.96,-37.15 6.92,-68.93 -9.04,-94.46 z m 408.64,48.15 v 0 c 2.33,-1.81 4.73,-3.69 6.43,-6.2 1.8,-2.69 2.72,-5.82 2.65,-9.21 0.07,-3.25 -0.85,-6.39 -2.65,-9.07 -1.7,-2.51 -4.1,-4.39 -6.43,-6.21 -3.61,-2.81 -7.01,-5.47 -7.01,-10.09 v -28.23 l -166.65,0.02 -166.65,-0.02 v 28.23 c 0,4.62 -3.4,7.28 -7,10.09 -2.34,1.82 -4.74,3.7 -6.43,6.21 -1.82,2.68 -2.73,5.82 -2.66,9.21 -0.07,3.25 0.84,6.38 2.66,9.07 1.69,2.51 4.1,4.39 6.43,6.2 3.6,2.82 7,5.47 7,10.1 v 92.13 c 0,4.62 -3.4,7.29 -7,10.1 -2.34,1.82 -4.74,3.7 -6.43,6.21 -1.82,2.68 -2.73,5.81 -2.66,9.21 -0.07,3.25 0.84,6.38 2.66,9.06 1.69,2.53 4.21,4.48 6.43,6.22 3.6,2.81 7,5.47 7,10.09 v 29.07 h 4.24 c 19.48,0.01 36.58,0.44 48.48,5.54 4.86,2.07 9.34,4.89 14.12,7.89 10.2,6.42 21.78,13.69 39.09,13.69 13.89,0 26.79,-5.19 38.22,-9.8 8.07,-3.24 15.69,-6.31 21.38,-6.31 h 2.25 c 5.68,0 13.3,3.07 21.42,6.33 11.38,4.59 24.29,9.78 38.17,9.78 17.32,0 28.89,-7.27 39.13,-13.71 4.74,-2.98 9.22,-5.8 14.08,-7.87 11.9,-5.1 29,-5.53 48.49,-5.54 h 4.23 v -29.07 c 0,-4.62 3.4,-7.28 7.01,-10.1 2.21,-1.73 4.73,-3.68 6.43,-6.2 1.8,-2.69 2.72,-5.82 2.65,-9.21 0.07,-3.26 -0.85,-6.39 -2.65,-9.07 -1.7,-2.51 -4.1,-4.39 -6.43,-6.21 -3.61,-2.81 -7.01,-5.48 -7.01,-10.1 v -92.13 c 0,-4.63 3.4,-7.28 7.01,-10.1 v 0"
         style="fill:#990000;fill-opacity:1;fill-rule:nonzero;stroke:none"
         transform="matrix(0.13333333,0,0,-0.13333333,0,245.88)" />
      <path
         id="path32"
         d="m 560.117,1532.21 c 5.281,0 10.317,-1.37 15.281,-5.47 1.653,-1.36 3.161,-2.73 4.5,-4 3.457,-3.3 3.247,-8.87 -0.468,-11.89 -3.742,-3.05 -8,-6.07 -10.664,-7.9 -6.153,-4.21 -16.68,-11.92 -23.993,-5.86 -3.695,3.07 3.625,8.06 0.422,20.75 -2.515,9.93 7.301,14.37 14.922,14.37 v 0"
         style="fill:#011f5b;fill-opacity:1;fill-rule:nonzero;stroke:none"
         transform="matrix(0.13333333,0,0,-0.13333333,0,245.88)" />
      <path
         id="path33"
         d="m 975.48,1406.91 c -52.023,0 -100.761,22.64 -150.039,48.12 -5.554,2.87 -11.691,6.23 -18.191,9.79 -39.715,21.73 -99.34,54.37 -138.25,33.96 -0.266,-5.1 -1.242,-9.94 -2.91,-14.42 -6.106,-16.34 -25.801,-33.54 -35.371,-40.34 -21.742,-15.64 -48.524,-31.65 -82.121,-31.65 -5.223,0 -10.086,0.76 -14.453,2.24 -6.43,2.19 -11.965,6.1 -16.008,11.3 -1.949,2.52 -3.602,5.36 -4.891,8.47 -1.137,2.73 -1.73,5.31 -2.094,8.04 -13.894,4.17 -22.382,13.56 -22.382,25.07 0,8.69 5.972,15.77 11.753,22.61 9.422,11.15 13.532,16.92 4.079,25.88 -0.985,0.92 -2.157,1.79 -3.395,2.71 -1.769,1.31 -3.602,2.67 -5.273,4.47 -11.586,12.42 -5.149,36.73 -1.293,51.26 l 0.398,1.5 c 4.066,15.46 10.293,31.42 19.039,48.8 11.836,23.55 26.164,50.1 46.442,67.06 1.046,0.88 2.425,1.27 3.777,1.06 1.351,-0.2 2.555,-0.96 3.305,-2.11 0.711,-1.08 8.808,-13.52 17.285,-29.89 35.269,21.09 85.5,23.52 91.285,23.73 31.051,1.15 76.094,-3.73 114.469,-33.35 23.847,-18.39 43.515,-41.18 62.539,-63.22 4.965,-5.75 10.101,-11.71 15.218,-17.48 29.254,-32.94 57.016,-58.8 84.899,-79.07 21.293,-15.49 54.373,-23.81 76.653,-5.49 8.02,6.59 11.57,18.71 8.81,30.16 -2.38,9.95 -8.88,16.78 -17.84,18.76 -15.99,3.53 -29.272,-12.54 -40.143,-28.74 -0.98,-1.45 -2.695,-2.26 -4.449,-2.09 -1.758,0.17 -3.269,1.29 -3.957,2.92 -10.906,26.08 -11.359,47.86 -1.34,64.74 8.496,14.33 25.02,24.44 44.729,27.57 -0.35,30.7 7.11,53.17 22.19,66.82 9.23,8.35 26.12,17.51 54.24,13.72 1.47,-0.19 2.78,-1.07 3.52,-2.36 0.75,-1.3 0.85,-2.86 0.27,-4.23 -19.43,-46.8 -14.6,-64.37 -4.04,-102.85 0.95,-3.48 1.94,-7.11 2.97,-10.92 10.18,-37.99 7.01,-70.57 -9.41,-96.83 -26.47,-42.33 -77.41,-52.64 -79.57,-53.06 -10.285,-1.82 -20.434,-2.66 -30.45,-2.66 z m -277.589,108.1 c 37.644,0 80.425,-23.42 113.964,-41.78 6.446,-3.53 12.54,-6.86 17.989,-9.68 57.246,-29.6 113.652,-55.28 174.336,-44.55 0.41,0.09 49.04,10 73.24,48.78 14.9,23.9 17.68,53.91 8.23,89.2 -1.03,3.79 -2.01,7.4 -2.96,10.86 -10.06,36.62 -15.78,57.47 2.03,103.1 -20.75,1.33 -33.29,-5.58 -40.33,-11.96 -13.6,-12.3 -19.98,-33.74 -18.95,-63.73 0.09,-2.51 -1.78,-4.67 -4.3,-4.93 -18.63,-1.93 -34.281,-10.72 -41.867,-23.5 -7.347,-12.39 -7.753,-28.44 -1.222,-47.79 9.25,12.61 24.899,29.64 44.939,25.21 12.49,-2.75 21.87,-12.43 25.1,-25.89 3.58,-14.93 -1.25,-30.93 -12.05,-39.8 -26.23,-21.55 -64.192,-12.45 -88.384,5.14 -28.441,20.68 -56.715,47 -86.426,80.46 -5.164,5.82 -10.328,11.8 -15.312,17.58 -18.707,21.68 -38.059,44.1 -61.137,61.9 -36.109,27.86 -78.785,32.42 -108.258,31.36 -20.062,-0.74 -60.339,-6.38 -87.339,-22.76 8.265,-17.2 15.738,-36.97 15.738,-52.23 0,-2.7 -0.547,-5.43 -1.504,-8.14 19.594,11.55 43.012,3.27 56.227,-11.09 2.929,-3.21 5.941,-7.79 9.437,-13.09 5.117,-7.77 10.93,-16.58 17.898,-23.3 1.032,-0.99 1.559,-2.4 1.454,-3.81 -0.11,-1.44 -0.852,-2.74 -2.016,-3.57 -0.125,-0.08 -12.539,-8.83 -30.074,-21.84 -2.367,-1.75 -4.883,-3.47 -7.114,-4.98 -0.417,-0.29 -0.855,-0.59 -1.308,-0.9 l 15.461,-2.63 c 10.633,5.9 22.305,8.36 34.508,8.36 z m -135.336,165.74 c -16.782,-15.88 -29.352,-39.32 -39.914,-60.34 -8.43,-16.77 -14.434,-32.12 -18.332,-46.93 l -0.399,-1.52 c -2.898,-10.94 -8.933,-33.71 -0.961,-42.27 1.074,-1.15 2.477,-2.19 3.965,-3.3 1.422,-1.05 2.883,-2.12 4.277,-3.46 16.457,-15.59 5.016,-29.13 -3.339,-39.02 -4.883,-5.78 -9.493,-11.23 -9.493,-16.42 0,-11.57 14.004,-15.63 18.297,-16.6 2.055,-0.47 3.571,-2.22 3.727,-4.33 0.242,-3.35 0.609,-5.81 1.722,-8.5 0.961,-2.32 2.172,-4.43 3.602,-6.27 2.887,-3.72 6.875,-6.52 11.535,-8.09 3.363,-1.16 7.188,-1.74 11.356,-1.74 30.875,0 56.015,15.1 76.543,29.86 12.265,8.73 27.625,24.26 31.961,35.89 1.171,3.13 1.89,6.4 2.207,9.91 l -21.594,3.67 c -0.195,0.03 -0.387,0.08 -0.574,0.14 -2.258,0.67 -3.805,2.37 -4.133,4.52 -0.668,4.32 3.176,6.94 10.824,12.15 2.258,1.54 4.59,3.12 6.797,4.76 11.328,8.41 20.547,15.06 25.723,18.75 -5.985,6.69 -11.055,14.39 -15.278,20.8 -3.269,4.96 -6.097,9.25 -8.5,11.89 -10.711,11.64 -29.59,18.45 -44.922,8.91 -6.191,-3.85 -11.601,-8.64 -17.336,-13.71 -4.628,-4.1 -9.418,-8.33 -14.671,-12.04 -2.047,-1.44 -4.864,-1.07 -6.454,0.86 -1.601,1.94 -1.441,4.77 0.364,6.51 0.683,0.67 1.504,1.44 2.422,2.3 6.992,6.57 23.355,21.96 23.355,32.87 0,25.27 -24.203,66.82 -32.777,80.75 v 0"
         style="fill:#011f5b;fill-opacity:1;fill-rule:nonzero;stroke:none"
         transform="matrix(0.13333333,0,0,-0.13333333,0,245.88)" />
      <path
         id="path34"
         d="m 530.148,1440.04 c -4.543,0 -9.14,0.28 -13.82,0.83 -2.633,0.31 -4.512,2.69 -4.199,5.33 0.312,2.63 2.691,4.51 5.328,4.19 21.836,-2.58 53.703,0.34 81.504,28.94 1.844,1.89 4.883,1.94 6.777,0.1 1.899,-1.85 1.942,-4.89 0.102,-6.79 -20.879,-21.47 -46.836,-32.6 -75.692,-32.6 v 0"
         style="fill:#011f5b;fill-opacity:1;fill-rule:nonzero;stroke:none"
         transform="matrix(0.13333333,0,0,-0.13333333,0,245.88)" />
      <path
         id="path35"
         d="m 914.895,1512 c -0.598,0 -1.207,0.12 -1.786,0.37 -2.273,0.99 -3.312,3.63 -2.328,5.9 5.012,11.53 5.699,21.07 2.047,28.36 -4.93,9.83 -16.476,12.65 -16.594,12.68 -1.246,0.29 -2.316,1.11 -2.921,2.24 -0.61,1.14 -0.715,2.48 -0.266,3.68 1.664,4.5 5.461,17.65 3.058,24.24 -2.058,5.66 -12.687,8.01 -16.25,8.39 -1.41,0.15 -2.671,0.96 -3.386,2.18 -0.723,1.22 -0.828,2.71 -0.281,4.01 1.492,3.58 4.57,14.12 0.921,19.79 -7.086,10.99 -25.699,5.66 -25.882,5.6 -1.602,-0.47 -3.336,-0.01 -4.493,1.19 -1.16,1.19 -1.558,2.94 -1.027,4.53 0.051,0.16 5.383,16.98 -5.082,27.68 -12.246,12.5 -38.469,5.14 -38.73,5.06 -1.598,-0.45 -3.317,0 -4.461,1.2 -1.157,1.2 -1.559,2.92 -1.043,4.5 0.179,0.58 4.492,14.51 -4.883,20.45 -14.914,9.45 -31.992,-2.64 -32.168,-2.77 -1.289,-0.93 -2.973,-1.1 -4.422,-0.47 -1.457,0.64 -2.461,2.01 -2.648,3.58 -0.09,0.77 -2.524,19.02 -18.579,21.18 -17.351,2.31 -35.73,-15.54 -35.914,-15.71 -0.918,-0.91 -2.179,-1.38 -3.464,-1.29 -1.286,0.09 -2.465,0.73 -3.247,1.75 -0.121,0.16 -12.367,15.97 -27.761,15.19 -14.875,-0.67 -20.703,-15.74 -20.754,-15.88 -0.539,-1.42 -1.75,-2.48 -3.235,-2.8 -1.48,-0.33 -3.027,0.11 -4.105,1.18 -0.137,0.13 -14.836,14.19 -29.941,8.64 -18.997,-6.96 -24.375,-30.2 -26.145,-37.83 l -0.062,-0.27 c -0.563,-2.41 -2.965,-3.91 -5.379,-3.35 -2.411,0.56 -3.914,2.97 -3.352,5.38 l 0.059,0.26 c 2.043,8.81 8.246,35.59 31.793,44.22 14.593,5.36 27.972,-1.96 34.726,-6.88 3.813,6.23 11.895,15.65 25.996,16.28 14.828,0.7 26.699,-9.43 32.11,-15.06 6.953,5.81 23.136,17.31 39.867,15.05 14.625,-1.97 21.949,-13.47 24.863,-22.61 7.813,3.87 22.52,8.67 36.559,-0.23 9.718,-6.15 10.668,-16.59 10,-23.59 10.179,1.71 29.179,2.88 40.722,-8.91 9.399,-9.61 9.688,-22.04 8.692,-29.72 8.258,0.97 21.703,0.51 28.926,-10.7 4.687,-7.28 3.207,-16.96 1.578,-22.89 6.078,-1.48 15.308,-5.05 18.304,-13.27 2.914,-7.99 0.254,-19.67 -1.636,-26.03 5.152,-2.12 13.324,-6.72 17.906,-15.75 4.949,-9.79 4.344,-21.92 -1.793,-36.05 -0.731,-1.69 -2.383,-2.7 -4.109,-2.7 v 0"
         style="fill:#011f5b;fill-opacity:1;fill-rule:nonzero;stroke:none"
         transform="matrix(0.13333333,0,0,-0.13333333,0,245.88)" />
      <path
         id="path36"
         d="m 892.516,1450.14 c -0.18,0 -0.364,0 -0.547,0.02 -2.457,0.3 -4.203,2.54 -3.903,5 2.094,17.15 -7.992,20.27 -16.894,23.03 -2.359,0.73 -4.395,1.35 -6.004,2.29 -4.746,2.74 -4.93,8.46 -5.125,14.51 -0.207,6.39 -0.438,13.62 -5.281,19.04 -8.321,9.3 -24.84,3.28 -25.012,3.22 -1.488,-0.55 -3.164,-0.28 -4.395,0.73 -1.238,1 -1.839,2.59 -1.593,4.17 0.023,0.17 2.644,18.28 -7.782,27.13 -8.867,7.52 -25.609,5.71 -31.308,4.36 -1.395,-0.32 -2.852,0.04 -3.934,0.96 -1.09,0.93 -1.668,2.32 -1.558,3.74 0.82,11.22 -3.657,20.87 -12.282,26.45 -7.296,4.73 -16.121,5.37 -23.011,1.66 -18.828,-10.14 -26.199,-10.82 -45.926,3.14 -6.16,4.36 -12.313,5.8 -18.277,4.29 -7.551,-1.92 -14.489,-8.64 -19.547,-18.93 -1.09,-2.23 -3.782,-3.14 -6,-2.05 -2.219,1.09 -3.137,3.77 -2.047,5.99 6.238,12.69 15.25,21.09 25.387,23.67 8.496,2.17 17.378,0.21 25.664,-5.66 16.605,-11.76 20.406,-11.23 36.504,-2.56 9.769,5.26 22.085,4.49 32.128,-2.03 9.79,-6.34 15.688,-16.93 16.387,-29.01 8.156,1 23.473,1.43 33.621,-7.19 9.641,-8.18 11.27,-21 11.266,-28.75 7.551,1.43 20.066,1.96 28.394,-7.36 7.016,-7.84 7.332,-17.6 7.559,-24.72 0.078,-2.46 0.195,-6.13 0.773,-7.11 0.801,-0.42 2.45,-0.93 4.055,-1.42 8.481,-2.63 26.137,-8.1 23.129,-32.68 -0.273,-2.27 -2.207,-3.93 -4.441,-3.93 v 0"
         style="fill:#011f5b;fill-opacity:1;fill-rule:nonzero;stroke:none"
         transform="matrix(0.13333333,0,0,-0.13333333,0,245.88)" />
      <path
         id="path37"
         d="m 447.09,1514.79 c -3.727,2.91 -5.828,4.69 -5.828,7.68 v 92.13 c 0,2.99 2.101,4.78 5.832,7.69 2.398,1.87 5.113,3.99 7.078,6.91 2.172,3.21 3.266,6.96 3.176,10.85 0.09,3.89 -1.004,7.64 -3.176,10.85 -1.965,2.91 -4.68,5.03 -7.082,6.9 -3.727,2.91 -5.828,4.71 -5.828,7.69 v 32.13 h -7.297 v 0 c -17.078,0.02 -35.395,0.2 -47.281,5.29 -4.641,1.98 -9.028,4.74 -13.672,7.66 -10.567,6.64 -22.532,14.17 -40.742,14.17 -14.473,0 -27.665,-5.31 -39.321,-10 -7.801,-3.14 -15.172,-6.11 -20.277,-6.11 h -1.074 v 0 h -0.094 v 0 h -1.078 c -5.098,0 -12.473,2.97 -20.278,6.11 -11.648,4.69 -24.843,10 -39.324,10 -18.203,0 -30.172,-7.53 -40.734,-14.17 -4.645,-2.92 -9.024,-5.68 -13.676,-7.66 -11.883,-5.09 -30.191,-5.27 -47.273,-5.29 v 0 h -7.301 v -32.13 c 0,-2.98 -2.1095,-4.78 -5.8283,-7.69 -2.3984,-1.87 -5.1172,-3.99 -7.0859,-6.9 -2.1641,-3.21 -3.2617,-6.96 -3.1719,-10.85 -0.0898,-3.89 1.0078,-7.64 3.1719,-10.85 1.9687,-2.92 4.6875,-5.04 7.082,-6.91 3.7227,-2.91 5.8322,-4.7 5.8322,-7.69 v -92.13 c 0,-2.99 -2.1095,-4.77 -5.8283,-7.68 -2.3984,-1.88 -5.1172,-4 -7.0859,-6.91 -2.1641,-3.21 -3.2617,-6.96 -3.1719,-10.85 -0.0898,-3.89 1.0078,-7.64 3.1719,-10.85 1.9687,-2.91 4.6875,-5.04 7.082,-6.91 3.7227,-2.91 5.8322,-4.7 5.8322,-7.68 v -30.86 l -0.238,-0.41 h 0.238 v -0.02 l 169.707,0.01 169.715,-0.01 v 0.02 h 0.238 l -0.238,0.41 v 30.86 c 0,2.98 2.101,4.77 5.832,7.68 2.398,1.87 5.113,4 7.078,6.91 2.172,3.21 3.266,6.96 3.176,10.85 0.09,3.89 -1.004,7.64 -3.176,10.85 -1.965,2.91 -4.68,5.03 -7.082,6.91 z m -150.121,189.98 c 10.742,4.32 22.91,9.22 35.301,9.22 15.109,0 24.781,-6.08 35.019,-12.52 4.797,-3.02 9.758,-6.13 15.172,-8.44 4.426,-1.89 9.184,-3.2 14.199,-4.11 v -195.63 c -8.004,1.23 -16.742,1.26 -25.922,1.29 -14.058,0.05 -28.59,0.09 -42.574,4.33 -4.766,1.45 -9.559,2.98 -14.258,4.47 -14.511,4.64 -27.168,8.68 -36.109,9.49 -0.168,0.02 -0.375,0.04 -0.563,0.07 v 185.36 c 5.965,0.95 12.45,3.54 19.735,6.47 z m -136.332,-11.74 c 5.422,2.31 10.379,5.42 15.176,8.44 10.242,6.44 19.91,12.52 35.011,12.52 12.395,0 24.571,-4.9 35.309,-9.22 7.543,-3.03 14.226,-5.7 20.355,-6.56 v -185.2 c -0.383,-0.05 -0.761,-0.09 -1.09,-0.14 -8.937,-0.81 -21.597,-4.85 -36.117,-9.49 -4.687,-1.49 -9.48,-3.02 -14.246,-4.47 -13.988,-4.24 -28.519,-4.28 -42.574,-4.33 -9.188,-0.03 -17.922,-0.06 -25.93,-1.29 v 195.64 c 4.989,0.91 9.715,2.22 14.106,4.1 z m 287.312,-196.15 c 0.059,-1.98 -0.469,-3.81 -1.566,-5.44 -1.133,-1.68 -3.047,-3.18 -5.074,-4.76 -4.207,-3.29 -9.454,-7.38 -9.454,-15.09 v -20.52 H 271.598 271.504 111.238 v 20.52 c 0,7.71 -5.23,11.8 -9.445,15.09 -2.0274,1.58 -3.9414,3.08 -5.0742,4.76 -1.0977,1.63 -1.629,3.46 -1.5625,5.44 v 0.15 0.14 c -0.0665,1.98 0.4648,3.82 1.5625,5.45 1.1328,1.68 3.0468,3.17 5.0742,4.76 4.215,3.29 9.445,7.37 9.445,15.09 v 92.13 c 0,7.72 -5.23,11.81 -9.445,15.1 -2.0274,1.58 -3.9414,3.08 -5.0742,4.76 -1.0977,1.63 -1.629,3.46 -1.5625,5.45 v 0.14 0.14 c -0.0665,1.99 0.4648,3.82 1.5625,5.45 1.1328,1.68 3.0468,3.18 5.0742,4.75 4.215,3.29 9.445,7.39 9.445,15.1 v 21.37 c 0.223,0.01 0.446,0.01 0.688,0.01 8.34,0 16.453,0.07 24.125,0.72 V 1475.8 h 116.691 c 2.215,-8.34 9.817,-14.53 18.856,-14.53 9.039,0 16.632,6.19 18.851,14.53 h 116.699 v 0 211.78 c 7.641,-0.64 15.719,-0.71 24.024,-0.71 0.25,0 0.469,0 0.683,-0.01 v -21.37 c 0,-7.71 5.247,-11.81 9.454,-15.1 2.027,-1.57 3.941,-3.07 5.074,-4.75 1.097,-1.63 1.625,-3.46 1.566,-5.45 l -0.004,-0.14 0.004,-0.14 c 0.059,-1.99 -0.469,-3.82 -1.566,-5.45 -1.133,-1.68 -3.047,-3.18 -5.074,-4.76 -4.207,-3.29 -9.454,-7.38 -9.454,-15.1 v -92.13 c 0,-7.72 5.247,-11.8 9.454,-15.09 2.027,-1.59 3.941,-3.08 5.074,-4.76 1.097,-1.63 1.625,-3.47 1.566,-5.45 l -0.004,-0.14 0.004,-0.15 v 0"
         style="fill:#011f5b;fill-opacity:1;fill-rule:nonzero;stroke:none"
         transform="matrix(0.13333333,0,0,-0.13333333,0,245.88)" />
      <path
         id="path38"
         d="m 1493.49,1514.79 c -3.71,2.91 -5.83,4.69 -5.83,7.68 v 92.13 c 0,2.99 2.12,4.78 5.83,7.69 2.4,1.87 5.12,3.99 7.09,6.91 2.16,3.21 3.26,6.96 3.17,10.85 0.09,3.89 -1.01,7.64 -3.17,10.85 -1.97,2.91 -4.69,5.03 -7.09,6.9 -3.71,2.91 -5.83,4.71 -5.83,7.69 v 32.13 h -7.29 v 0 c -17.09,0.02 -35.39,0.2 -47.28,5.29 -4.65,1.98 -9.03,4.74 -13.67,7.66 -10.57,6.64 -22.54,14.17 -40.75,14.17 -14.47,0 -27.67,-5.31 -39.31,-10 -7.82,-3.14 -15.19,-6.11 -20.28,-6.11 h -1.09 v 0 h -0.07 v 0 h -1.09 c -5.11,0 -12.47,2.97 -20.27,6.11 -11.66,4.69 -24.86,10 -39.33,10 -18.21,0 -30.17,-7.53 -40.74,-14.17 -4.64,-2.92 -9.02,-5.68 -13.67,-7.66 -11.89,-5.09 -30.2,-5.27 -47.28,-5.29 v 0 h -7.29 v -32.13 c 0,-2.98 -2.11,-4.78 -5.83,-7.69 -2.41,-1.87 -5.13,-3.99 -7.09,-6.9 -2.17,-3.21 -3.26,-6.96 -3.18,-10.85 -0.08,-3.89 1.01,-7.64 3.18,-10.85 1.96,-2.92 4.68,-5.04 7.09,-6.91 3.72,-2.91 5.83,-4.7 5.83,-7.69 v -92.13 c 0,-2.99 -2.11,-4.77 -5.83,-7.68 -2.41,-1.88 -5.13,-4 -7.09,-6.91 -2.17,-3.21 -3.26,-6.96 -3.18,-10.85 -0.08,-3.89 1.01,-7.64 3.18,-10.85 1.96,-2.91 4.68,-5.04 7.09,-6.91 3.72,-2.91 5.83,-4.7 5.83,-7.68 v -30.86 l -0.24,-0.41 h 0.24 v -0.02 l 169.7,0.01 169.71,-0.01 v 0.02 h 0.25 l -0.25,0.41 v 30.86 c 0,2.98 2.12,4.77 5.83,7.68 2.4,1.87 5.12,4 7.09,6.91 2.16,3.21 3.26,6.96 3.17,10.85 0.09,3.89 -1.01,7.64 -3.17,10.85 -1.97,2.91 -4.69,5.03 -7.09,6.91 z m -150.12,189.98 c 10.74,4.32 22.92,9.22 35.3,9.22 15.11,0 24.78,-6.08 35.02,-12.52 4.79,-3.02 9.76,-6.13 15.18,-8.44 4.42,-1.89 9.17,-3.2 14.2,-4.11 v -195.63 c -8.01,1.23 -16.75,1.26 -25.93,1.29 -14.05,0.05 -28.59,0.09 -42.58,4.33 -4.77,1.45 -9.56,2.98 -14.25,4.47 -14.51,4.64 -27.17,8.68 -36.12,9.49 -0.17,0.02 -0.37,0.04 -0.55,0.07 v 185.36 c 5.96,0.95 12.45,3.54 19.73,6.47 z m -136.32,-11.74 c 5.41,2.31 10.37,5.42 15.17,8.44 10.23,6.44 19.9,12.52 35.01,12.52 12.39,0 24.56,-4.9 35.3,-9.22 7.54,-3.03 14.23,-5.7 20.36,-6.56 v -185.2 c -0.38,-0.05 -0.76,-0.09 -1.09,-0.14 -8.94,-0.81 -21.59,-4.85 -36.11,-9.49 -4.69,-1.49 -9.5,-3.02 -14.26,-4.47 -13.98,-4.24 -28.51,-4.28 -42.57,-4.33 -9.18,-0.03 -17.92,-0.06 -25.93,-1.29 v 195.64 c 4.99,0.91 9.72,2.22 14.12,4.1 z m 287.3,-196.15 c 0.07,-1.98 -0.46,-3.81 -1.57,-5.44 -1.12,-1.68 -3.05,-3.18 -5.07,-4.76 -4.21,-3.29 -9.44,-7.38 -9.44,-15.09 v -20.52 h -160.28 -0.07 -160.27 v 20.52 c 0,7.71 -5.24,11.8 -9.45,15.09 -2.02,1.58 -3.94,3.08 -5.08,4.76 -1.09,1.63 -1.63,3.46 -1.57,5.44 l 0.01,0.15 -0.01,0.14 c -0.06,1.98 0.48,3.82 1.57,5.45 1.14,1.68 3.06,3.17 5.08,4.76 4.21,3.29 9.45,7.37 9.45,15.09 v 92.13 c 0,7.72 -5.24,11.81 -9.45,15.1 -2.02,1.58 -3.94,3.08 -5.08,4.76 -1.09,1.63 -1.63,3.46 -1.57,5.45 l 0.01,0.14 -0.01,0.14 c -0.06,1.99 0.48,3.82 1.57,5.45 1.14,1.68 3.06,3.18 5.08,4.75 4.21,3.29 9.45,7.39 9.45,15.1 v 21.37 c 0.22,0.01 0.44,0.01 0.68,0.01 8.34,0 16.45,0.07 24.12,0.72 V 1475.8 h 116.7 c 2.21,-8.34 9.81,-14.53 18.84,-14.53 9.04,0 16.65,6.19 18.86,14.53 h 116.7 v 0 211.78 c 7.64,-0.64 15.72,-0.71 24.03,-0.71 0.24,0 0.47,0 0.69,-0.01 v -21.37 c 0,-7.71 5.23,-11.81 9.44,-15.1 2.02,-1.57 3.95,-3.07 5.07,-4.75 1.11,-1.63 1.64,-3.46 1.57,-5.45 v -0.14 -0.14 c 0.07,-1.99 -0.46,-3.82 -1.57,-5.45 -1.12,-1.68 -3.05,-3.18 -5.07,-4.76 -4.21,-3.29 -9.44,-7.38 -9.44,-15.1 v -92.13 c 0,-7.72 5.23,-11.8 9.44,-15.09 2.02,-1.59 3.95,-3.08 5.07,-4.76 1.11,-1.63 1.64,-3.47 1.57,-5.45 v -0.14 -0.15 0"
         style="fill:#011f5b;fill-opacity:1;fill-rule:nonzero;stroke:none"
         transform="matrix(0.13333333,0,0,-0.13333333,0,245.88)" />
      <path
         id="path39"
         d="M 1559.32,1813.95 H 30.1953 c 0,0 0.0313,-752.22 0.0039,-762.25 C 29.1797,717.719 215.043,475.102 371.152,330.379 541.332,172.582 732.992,78.6289 793.203,65.5195 l 1.555,-0.3398 1.551,0.3398 c 60.211,13.1094 251.871,107.0625 422.051,264.8595 156.1,144.723 341.97,387.34 340.96,721.321 -0.03,10.03 0,762.25 0,762.25 z m -21.23,-21.22 c 0,-48.71 -0.01,-255.35 -0.01,-438.1 H 51.4297 c -0.0039,182.75 -0.0078,389.39 -0.0117,438.1 H 1538.09 Z M 346.406,611.559 c -51.14,51.14 -51.14,134.062 0,185.222 51.149,51.137 134.067,51.137 185.215,0 51.145,-51.16 51.145,-134.082 0,-185.222 -51.148,-51.149 -134.066,-51.149 -185.215,0 z M 1203.93,345.93 C 1027.1,181.98 843.832,99.3594 794.758,86.9688 745.676,99.3594 562.406,181.98 385.574,345.93 c -4.297,3.992 -8.625,8.058 -12.969,12.199 L 794.758,806.332 1216.9,358.129 c -4.34,-4.141 -8.67,-8.207 -12.97,-12.199 z m -540.117,683.14 c 0,72.31 58.628,130.93 130.945,130.93 72.312,0 130.933,-58.62 130.933,-130.93 0,-72.324 -58.621,-130.945 -130.933,-130.945 -72.317,0 -130.945,58.621 -130.945,130.945 z M 1243.11,611.559 c -51.15,-51.149 -134.07,-51.149 -185.22,0 -51.14,51.14 -51.14,134.062 0,185.222 51.15,51.137 134.07,51.137 185.22,0 51.14,-51.16 51.14,-134.082 0,-185.222 z M 1453.38,677.832 794.758,1313.05 136.133,677.832 C 85.0039,785.379 50.9922,910.164 51.4219,1051.64 c 0.0078,4.16 0.0156,132.38 0.0078,281.76 H 1538.08 c 0,-149.38 0,-277.6 0.01,-281.76 0.43,-141.476 -33.59,-266.261 -84.71,-373.808 v 0"
         style="fill:#011f5b;fill-opacity:1;fill-rule:nonzero;stroke:none"
         transform="matrix(0.13333333,0,0,-0.13333333,0,245.88)" />
    </g>
  </g>
</svg>
